<svg width="1500" height="496" viewBox="0 0 1500 496" fill="none" xmlns="http://www.w3.org/2000/svg">
<rect y="166" width="1500" height="330" fill="#092B42"/>
<path d="M400 165C400 151.739 394.732 139.021 385.355 129.645C375.979 120.268 363.261 115 350 115C336.739 115 324.021 120.268 314.645 129.645C305.268 139.021 300 151.739 300 165L350 165H400Z" fill="#092B42"/>
<path d="M300 165C300 178.261 305.268 190.979 314.645 200.355C324.021 209.732 336.739 215 350 215C363.261 215 375.979 209.732 385.355 200.355C394.732 190.979 400 178.261 400 165L350 165L300 165Z" fill="#E7E7E7"/>
<path d="M799.703 165.532C799.703 152.271 794.435 139.553 785.058 130.177C775.682 120.8 762.964 115.532 749.703 115.532C736.442 115.532 723.725 120.8 714.348 130.177C704.971 139.553 699.703 152.271 699.703 165.532L749.703 165.532H799.703Z" fill="#092B42"/>
<path d="M699.703 165.532C699.703 178.793 704.971 191.51 714.348 200.887C723.725 210.264 736.442 215.532 749.703 215.532C762.964 215.532 775.682 210.264 785.058 200.887C794.435 191.511 799.703 178.793 799.703 165.532L749.703 165.532L699.703 165.532Z" fill="#E7E7E7"/>
<path d="M1199.7 166.197C1199.7 152.936 1194.44 140.219 1185.06 130.842C1175.68 121.465 1162.96 116.197 1149.7 116.197C1136.44 116.197 1123.72 121.465 1114.35 130.842C1104.97 140.218 1099.7 152.936 1099.7 166.197L1149.7 166.197H1199.7Z" fill="#092B42"/>
<path d="M1099.7 166.197C1099.7 179.458 1104.97 192.176 1114.35 201.552C1123.72 210.929 1136.44 216.197 1149.7 216.197C1162.96 216.197 1175.68 210.929 1185.06 201.552C1194.44 192.176 1199.7 179.458 1199.7 166.197L1149.7 166.197L1099.7 166.197Z" fill="#E7E7E7"/>
</svg>
